<mxfile host="app.diagrams.net" agent="Mozilla/5.0 (Macintosh; Intel Mac OS X 10_15_7) AppleWebKit/537.36 (KHTML, like Gecko) Chrome/131.0.0.0 Safari/537.36" version="26.0.3">
  <diagram name="第 1 页" id="OkHcdpUXPn1q1teVOjKF">
    <mxGraphModel dx="954" dy="495" grid="1" gridSize="10" guides="1" tooltips="1" connect="1" arrows="1" fold="1" page="1" pageScale="1" pageWidth="827" pageHeight="1169" math="0" shadow="0">
      <root>
        <mxCell id="0" />
        <mxCell id="1" parent="0" />
        <mxCell id="bD33c27-c4mHYc3ui6m_-8" value="" style="edgeStyle=orthogonalEdgeStyle;rounded=0;orthogonalLoop=1;jettySize=auto;html=1;fontFamily=Helvetica;fontSize=12;fontColor=default;" parent="1" source="bD33c27-c4mHYc3ui6m_-2" target="bD33c27-c4mHYc3ui6m_-3" edge="1">
          <mxGeometry relative="1" as="geometry" />
        </mxCell>
        <mxCell id="bD33c27-c4mHYc3ui6m_-11" style="edgeStyle=orthogonalEdgeStyle;rounded=0;orthogonalLoop=1;jettySize=auto;html=1;entryX=0.5;entryY=0;entryDx=0;entryDy=0;fontFamily=Helvetica;fontSize=12;fontColor=default;" parent="1" source="bD33c27-c4mHYc3ui6m_-2" target="bD33c27-c4mHYc3ui6m_-4" edge="1">
          <mxGeometry relative="1" as="geometry">
            <Array as="points">
              <mxPoint x="140" y="130" />
              <mxPoint x="460" y="130" />
            </Array>
          </mxGeometry>
        </mxCell>
        <mxCell id="bD33c27-c4mHYc3ui6m_-2" value="数据结构：&lt;div&gt;&lt;br&gt;&lt;/div&gt;&lt;div&gt;tableName - 表名&lt;/div&gt;&lt;div&gt;tableCode - 编码&lt;/div&gt;&lt;div&gt;&lt;br&gt;&lt;/div&gt;&lt;div&gt;字段集合：&lt;/div&gt;&lt;div&gt;&amp;nbsp; name - 姓名&lt;/div&gt;&lt;div&gt;&amp;nbsp; code - name&lt;/div&gt;" style="rounded=0;whiteSpace=wrap;html=1;strokeColor=default;align=left;verticalAlign=top;fontFamily=Helvetica;fontSize=12;fontColor=default;fillColor=default;spacing=6;" parent="1" vertex="1">
          <mxGeometry x="80" y="180" width="120" height="181" as="geometry" />
        </mxCell>
        <mxCell id="bD33c27-c4mHYc3ui6m_-9" value="" style="edgeStyle=orthogonalEdgeStyle;rounded=0;orthogonalLoop=1;jettySize=auto;html=1;fontFamily=Helvetica;fontSize=12;fontColor=default;" parent="1" source="bD33c27-c4mHYc3ui6m_-3" target="bD33c27-c4mHYc3ui6m_-4" edge="1">
          <mxGeometry relative="1" as="geometry" />
        </mxCell>
        <mxCell id="bD33c27-c4mHYc3ui6m_-3" value="表单：&lt;div&gt;&lt;br&gt;&lt;/div&gt;&lt;div&gt;数据源 - 数据结构&lt;/div&gt;&lt;div&gt;name - 姓名&lt;/div&gt;&lt;div&gt;code - name&lt;br&gt;value - &#39; &#39;&lt;br&gt;tag - 输入框&lt;br&gt;&lt;/div&gt;&lt;div&gt;props - 属性&lt;/div&gt;" style="rounded=0;whiteSpace=wrap;html=1;strokeColor=default;align=left;verticalAlign=top;fontFamily=Helvetica;fontSize=12;fontColor=default;fillColor=default;spacing=6;" parent="1" vertex="1">
          <mxGeometry x="240" y="180" width="120" height="181" as="geometry" />
        </mxCell>
        <mxCell id="bD33c27-c4mHYc3ui6m_-10" value="" style="edgeStyle=orthogonalEdgeStyle;rounded=0;orthogonalLoop=1;jettySize=auto;html=1;fontFamily=Helvetica;fontSize=12;fontColor=default;" parent="1" source="bD33c27-c4mHYc3ui6m_-4" target="bD33c27-c4mHYc3ui6m_-5" edge="1">
          <mxGeometry relative="1" as="geometry" />
        </mxCell>
        <mxCell id="bD33c27-c4mHYc3ui6m_-4" value="表格：&lt;div&gt;&lt;br&gt;&lt;/div&gt;&lt;div&gt;数据源 - 数据结构&lt;/div&gt;&lt;div&gt;列数据 - 数据结构&lt;/div&gt;&lt;div&gt;行数据 - 数据源&lt;/div&gt;&lt;div&gt;操作列 - 表单（增、改）&lt;/div&gt;&lt;div&gt;&lt;br&gt;&lt;/div&gt;&lt;div&gt;&lt;div&gt;筛选&lt;/div&gt;&lt;div&gt;&lt;br&gt;&lt;/div&gt;&lt;div&gt;分页&lt;/div&gt;&lt;/div&gt;" style="rounded=0;whiteSpace=wrap;html=1;strokeColor=default;align=left;verticalAlign=top;fontFamily=Helvetica;fontSize=12;fontColor=default;fillColor=default;spacing=6;" parent="1" vertex="1">
          <mxGeometry x="400" y="180" width="120" height="181" as="geometry" />
        </mxCell>
        <mxCell id="bD33c27-c4mHYc3ui6m_-5" value="路由：&lt;div&gt;&lt;br&gt;&lt;/div&gt;&lt;div&gt;内容 - 表格&lt;/div&gt;" style="rounded=0;whiteSpace=wrap;html=1;strokeColor=default;align=left;verticalAlign=top;fontFamily=Helvetica;fontSize=12;fontColor=default;fillColor=default;spacing=6;" parent="1" vertex="1">
          <mxGeometry x="560" y="180" width="120" height="181" as="geometry" />
        </mxCell>
        <mxCell id="bD33c27-c4mHYc3ui6m_-12" value="关系图" style="text;html=1;align=center;verticalAlign=middle;resizable=0;points=[];autosize=1;strokeColor=none;fillColor=none;fontFamily=Helvetica;fontSize=20;fontColor=default;" parent="1" vertex="1">
          <mxGeometry x="350" y="20" width="80" height="40" as="geometry" />
        </mxCell>
      </root>
    </mxGraphModel>
  </diagram>
</mxfile>
